<mxfile host="Electron" agent="Mozilla/5.0 (Windows NT 10.0; Win64; x64) AppleWebKit/537.36 (KHTML, like Gecko) draw.io/26.0.7 Chrome/128.0.6613.186 Electron/32.2.5 Safari/537.36" version="26.0.7">
  <diagram name="페이지-1" id="vcdm0ymTV4vj8cVS2F0T">
    <mxGraphModel dx="1049" dy="1856" grid="1" gridSize="10" guides="1" tooltips="1" connect="1" arrows="1" fold="1" page="1" pageScale="1" pageWidth="827" pageHeight="1169" math="0" shadow="0">
      <root>
        <mxCell id="0" />
        <mxCell id="1" parent="0" />
        <mxCell id="6kFhQficbEtRCn-VQEsw-10" style="edgeStyle=orthogonalEdgeStyle;rounded=0;orthogonalLoop=1;jettySize=auto;html=1;entryX=0.5;entryY=1;entryDx=0;entryDy=0;" parent="1" source="6kFhQficbEtRCn-VQEsw-6" target="EGz7P1Q1aY1t3WAdPLNM-13" edge="1">
          <mxGeometry relative="1" as="geometry">
            <mxPoint x="730" y="630" as="targetPoint" />
          </mxGeometry>
        </mxCell>
        <mxCell id="EGz7P1Q1aY1t3WAdPLNM-36" style="edgeStyle=orthogonalEdgeStyle;rounded=0;orthogonalLoop=1;jettySize=auto;html=1;exitX=0.5;exitY=1;exitDx=0;exitDy=0;entryX=0.5;entryY=0;entryDx=0;entryDy=0;" edge="1" parent="1" source="6kFhQficbEtRCn-VQEsw-6" target="EGz7P1Q1aY1t3WAdPLNM-2">
          <mxGeometry relative="1" as="geometry" />
        </mxCell>
        <mxCell id="6kFhQficbEtRCn-VQEsw-6" value="로그인 유무" style="rhombus;whiteSpace=wrap;html=1;" parent="1" vertex="1">
          <mxGeometry x="350" y="590" width="120" height="80" as="geometry" />
        </mxCell>
        <mxCell id="6kFhQficbEtRCn-VQEsw-11" value="NO" style="text;html=1;align=center;verticalAlign=middle;resizable=0;points=[];autosize=1;strokeColor=none;fillColor=none;" parent="1" vertex="1">
          <mxGeometry x="460" y="600" width="40" height="30" as="geometry" />
        </mxCell>
        <mxCell id="6kFhQficbEtRCn-VQEsw-12" value="&lt;font&gt;로그인이 필요한 서비스입니다. 회원가입 후 다양한 프로젝트를 만나보세요!&lt;/font&gt;" style="rounded=1;whiteSpace=wrap;html=1;align=center;" parent="1" vertex="1">
          <mxGeometry x="540" y="550" width="170" height="60" as="geometry" />
        </mxCell>
        <mxCell id="6kFhQficbEtRCn-VQEsw-16" value="YES" style="text;html=1;align=center;verticalAlign=middle;resizable=0;points=[];autosize=1;strokeColor=none;fillColor=none;" parent="1" vertex="1">
          <mxGeometry x="360" y="710" width="50" height="30" as="geometry" />
        </mxCell>
        <mxCell id="EGz7P1Q1aY1t3WAdPLNM-5" value="" style="edgeStyle=orthogonalEdgeStyle;rounded=0;orthogonalLoop=1;jettySize=auto;html=1;" edge="1" parent="1" source="EGz7P1Q1aY1t3WAdPLNM-1" target="EGz7P1Q1aY1t3WAdPLNM-4">
          <mxGeometry relative="1" as="geometry" />
        </mxCell>
        <mxCell id="EGz7P1Q1aY1t3WAdPLNM-24" style="edgeStyle=orthogonalEdgeStyle;rounded=0;orthogonalLoop=1;jettySize=auto;html=1;exitX=1;exitY=0.5;exitDx=0;exitDy=0;entryX=0;entryY=0.5;entryDx=0;entryDy=0;" edge="1" parent="1" source="EGz7P1Q1aY1t3WAdPLNM-1">
          <mxGeometry relative="1" as="geometry">
            <mxPoint x="590" y="50" as="targetPoint" />
          </mxGeometry>
        </mxCell>
        <mxCell id="EGz7P1Q1aY1t3WAdPLNM-1" value="메인 페이지" style="ellipse;whiteSpace=wrap;html=1;" vertex="1" parent="1">
          <mxGeometry x="350" y="10" width="120" height="80" as="geometry" />
        </mxCell>
        <mxCell id="EGz7P1Q1aY1t3WAdPLNM-2" value="로그인 완료" style="ellipse;whiteSpace=wrap;html=1;" vertex="1" parent="1">
          <mxGeometry x="335.5" y="810" width="149" height="80" as="geometry" />
        </mxCell>
        <mxCell id="EGz7P1Q1aY1t3WAdPLNM-6" style="edgeStyle=orthogonalEdgeStyle;rounded=0;orthogonalLoop=1;jettySize=auto;html=1;entryX=0.5;entryY=0;entryDx=0;entryDy=0;" edge="1" parent="1" source="EGz7P1Q1aY1t3WAdPLNM-4" target="6kFhQficbEtRCn-VQEsw-6">
          <mxGeometry relative="1" as="geometry" />
        </mxCell>
        <mxCell id="EGz7P1Q1aY1t3WAdPLNM-14" style="edgeStyle=orthogonalEdgeStyle;rounded=0;orthogonalLoop=1;jettySize=auto;html=1;exitX=1;exitY=0.5;exitDx=0;exitDy=0;entryX=0;entryY=0.5;entryDx=0;entryDy=0;" edge="1" parent="1" source="EGz7P1Q1aY1t3WAdPLNM-4" target="EGz7P1Q1aY1t3WAdPLNM-13">
          <mxGeometry relative="1" as="geometry" />
        </mxCell>
        <mxCell id="EGz7P1Q1aY1t3WAdPLNM-4" value="로그인 or 회원가입" style="whiteSpace=wrap;html=1;" vertex="1" parent="1">
          <mxGeometry x="350" y="470" width="120" height="60" as="geometry" />
        </mxCell>
        <mxCell id="EGz7P1Q1aY1t3WAdPLNM-16" style="edgeStyle=orthogonalEdgeStyle;rounded=0;orthogonalLoop=1;jettySize=auto;html=1;exitX=1;exitY=0.5;exitDx=0;exitDy=0;entryX=0;entryY=0.5;entryDx=0;entryDy=0;" edge="1" parent="1" source="EGz7P1Q1aY1t3WAdPLNM-13" target="EGz7P1Q1aY1t3WAdPLNM-15">
          <mxGeometry relative="1" as="geometry" />
        </mxCell>
        <mxCell id="EGz7P1Q1aY1t3WAdPLNM-13" value="회원가입 페이지" style="whiteSpace=wrap;html=1;" vertex="1" parent="1">
          <mxGeometry x="560" y="470" width="120" height="60" as="geometry" />
        </mxCell>
        <mxCell id="EGz7P1Q1aY1t3WAdPLNM-15" value="개인 정보 입력" style="shape=parallelogram;perimeter=parallelogramPerimeter;whiteSpace=wrap;html=1;fixedSize=1;" vertex="1" parent="1">
          <mxGeometry x="780" y="470" width="120" height="60" as="geometry" />
        </mxCell>
        <mxCell id="EGz7P1Q1aY1t3WAdPLNM-37" style="edgeStyle=orthogonalEdgeStyle;rounded=0;orthogonalLoop=1;jettySize=auto;html=1;entryX=1;entryY=0.5;entryDx=0;entryDy=0;exitX=0.51;exitY=0.833;exitDx=0;exitDy=0;exitPerimeter=0;" edge="1" parent="1" source="EGz7P1Q1aY1t3WAdPLNM-17" target="EGz7P1Q1aY1t3WAdPLNM-2">
          <mxGeometry relative="1" as="geometry">
            <mxPoint x="790" y="850" as="targetPoint" />
            <Array as="points">
              <mxPoint x="1050" y="700" />
              <mxPoint x="1051" y="850" />
            </Array>
          </mxGeometry>
        </mxCell>
        <mxCell id="EGz7P1Q1aY1t3WAdPLNM-17" value="가입 완료 문구" style="strokeWidth=2;html=1;shape=mxgraph.flowchart.document2;whiteSpace=wrap;size=0.25;" vertex="1" parent="1">
          <mxGeometry x="1000" y="470" width="100" height="60" as="geometry" />
        </mxCell>
        <mxCell id="EGz7P1Q1aY1t3WAdPLNM-18" style="edgeStyle=orthogonalEdgeStyle;rounded=0;orthogonalLoop=1;jettySize=auto;html=1;exitX=1;exitY=0.5;exitDx=0;exitDy=0;entryX=0;entryY=0.5;entryDx=0;entryDy=0;entryPerimeter=0;" edge="1" parent="1" source="EGz7P1Q1aY1t3WAdPLNM-15" target="EGz7P1Q1aY1t3WAdPLNM-17">
          <mxGeometry relative="1" as="geometry" />
        </mxCell>
        <mxCell id="EGz7P1Q1aY1t3WAdPLNM-28" style="edgeStyle=orthogonalEdgeStyle;rounded=0;orthogonalLoop=1;jettySize=auto;html=1;exitX=1;exitY=0.5;exitDx=0;exitDy=0;entryX=0;entryY=0.5;entryDx=0;entryDy=0;" edge="1" parent="1" source="EGz7P1Q1aY1t3WAdPLNM-25" target="EGz7P1Q1aY1t3WAdPLNM-27">
          <mxGeometry relative="1" as="geometry" />
        </mxCell>
        <mxCell id="EGz7P1Q1aY1t3WAdPLNM-25" value="프로젝트 만들기" style="rounded=0;whiteSpace=wrap;html=1;" vertex="1" parent="1">
          <mxGeometry x="590" y="20" width="120" height="60" as="geometry" />
        </mxCell>
        <mxCell id="EGz7P1Q1aY1t3WAdPLNM-31" style="edgeStyle=orthogonalEdgeStyle;rounded=0;orthogonalLoop=1;jettySize=auto;html=1;exitX=1;exitY=0.5;exitDx=0;exitDy=0;entryX=0;entryY=0.5;entryDx=0;entryDy=0;" edge="1" parent="1" source="EGz7P1Q1aY1t3WAdPLNM-27" target="EGz7P1Q1aY1t3WAdPLNM-30">
          <mxGeometry relative="1" as="geometry" />
        </mxCell>
        <mxCell id="EGz7P1Q1aY1t3WAdPLNM-34" value="" style="edgeStyle=orthogonalEdgeStyle;rounded=0;orthogonalLoop=1;jettySize=auto;html=1;" edge="1" parent="1" source="EGz7P1Q1aY1t3WAdPLNM-27" target="EGz7P1Q1aY1t3WAdPLNM-33">
          <mxGeometry relative="1" as="geometry" />
        </mxCell>
        <mxCell id="EGz7P1Q1aY1t3WAdPLNM-27" value="전문가 확인" style="rhombus;whiteSpace=wrap;html=1;" vertex="1" parent="1">
          <mxGeometry x="790" y="10" width="120" height="80" as="geometry" />
        </mxCell>
        <mxCell id="EGz7P1Q1aY1t3WAdPLNM-40" style="edgeStyle=orthogonalEdgeStyle;rounded=0;orthogonalLoop=1;jettySize=auto;html=1;exitX=1;exitY=0.5;exitDx=0;exitDy=0;" edge="1" parent="1" source="EGz7P1Q1aY1t3WAdPLNM-30" target="EGz7P1Q1aY1t3WAdPLNM-38">
          <mxGeometry relative="1" as="geometry" />
        </mxCell>
        <mxCell id="EGz7P1Q1aY1t3WAdPLNM-30" value="프로젝트 작성&amp;nbsp;&lt;div&gt;및 등록&lt;/div&gt;" style="shape=parallelogram;perimeter=parallelogramPerimeter;whiteSpace=wrap;html=1;fixedSize=1;" vertex="1" parent="1">
          <mxGeometry x="1000" y="20" width="120" height="60" as="geometry" />
        </mxCell>
        <mxCell id="EGz7P1Q1aY1t3WAdPLNM-32" value="YES" style="text;html=1;align=center;verticalAlign=middle;resizable=0;points=[];autosize=1;strokeColor=none;fillColor=none;" vertex="1" parent="1">
          <mxGeometry x="920" y="20" width="50" height="30" as="geometry" />
        </mxCell>
        <mxCell id="EGz7P1Q1aY1t3WAdPLNM-42" style="edgeStyle=orthogonalEdgeStyle;rounded=0;orthogonalLoop=1;jettySize=auto;html=1;exitX=1;exitY=0.5;exitDx=0;exitDy=0;entryX=0;entryY=0.5;entryDx=0;entryDy=0;" edge="1" parent="1" source="EGz7P1Q1aY1t3WAdPLNM-33" target="EGz7P1Q1aY1t3WAdPLNM-41">
          <mxGeometry relative="1" as="geometry" />
        </mxCell>
        <mxCell id="EGz7P1Q1aY1t3WAdPLNM-33" value="전문가 등록 페이지" style="whiteSpace=wrap;html=1;" vertex="1" parent="1">
          <mxGeometry x="790" y="280" width="120" height="60" as="geometry" />
        </mxCell>
        <mxCell id="EGz7P1Q1aY1t3WAdPLNM-35" value="NO" style="text;html=1;align=center;verticalAlign=middle;resizable=0;points=[];autosize=1;strokeColor=none;fillColor=none;" vertex="1" parent="1">
          <mxGeometry x="810" y="100" width="40" height="30" as="geometry" />
        </mxCell>
        <mxCell id="EGz7P1Q1aY1t3WAdPLNM-38" value="팀원 모집" style="rhombus;whiteSpace=wrap;html=1;" vertex="1" parent="1">
          <mxGeometry x="1241" y="10" width="120" height="80" as="geometry" />
        </mxCell>
        <mxCell id="EGz7P1Q1aY1t3WAdPLNM-44" value="" style="edgeStyle=orthogonalEdgeStyle;rounded=0;orthogonalLoop=1;jettySize=auto;html=1;" edge="1" parent="1" source="EGz7P1Q1aY1t3WAdPLNM-41">
          <mxGeometry relative="1" as="geometry">
            <mxPoint x="1190" y="310" as="targetPoint" />
          </mxGeometry>
        </mxCell>
        <mxCell id="EGz7P1Q1aY1t3WAdPLNM-41" value="전문가 정보 등록" style="shape=parallelogram;perimeter=parallelogramPerimeter;whiteSpace=wrap;html=1;fixedSize=1;" vertex="1" parent="1">
          <mxGeometry x="990" y="280" width="120" height="60" as="geometry" />
        </mxCell>
        <mxCell id="EGz7P1Q1aY1t3WAdPLNM-48" style="edgeStyle=orthogonalEdgeStyle;rounded=0;orthogonalLoop=1;jettySize=auto;html=1;exitX=0.5;exitY=1;exitDx=0;exitDy=0;entryX=0.5;entryY=0;entryDx=0;entryDy=0;" edge="1" parent="1" source="EGz7P1Q1aY1t3WAdPLNM-45" target="EGz7P1Q1aY1t3WAdPLNM-47">
          <mxGeometry relative="1" as="geometry" />
        </mxCell>
        <mxCell id="EGz7P1Q1aY1t3WAdPLNM-45" value="전문가 인증 심사" style="rhombus;whiteSpace=wrap;html=1;" vertex="1" parent="1">
          <mxGeometry x="1190" y="270" width="120" height="80" as="geometry" />
        </mxCell>
        <mxCell id="EGz7P1Q1aY1t3WAdPLNM-46" value="&lt;font&gt;전문가 전환 신청을 하지 않으면 프로젝트 개설이 불가능합니다.&amp;nbsp;&lt;/font&gt;" style="rounded=1;whiteSpace=wrap;html=1;align=center;" vertex="1" parent="1">
          <mxGeometry x="760" y="150" width="180" height="60" as="geometry" />
        </mxCell>
        <mxCell id="EGz7P1Q1aY1t3WAdPLNM-52" style="edgeStyle=orthogonalEdgeStyle;rounded=0;orthogonalLoop=1;jettySize=auto;html=1;entryX=0.5;entryY=0;entryDx=0;entryDy=0;" edge="1" parent="1" source="EGz7P1Q1aY1t3WAdPLNM-47" target="EGz7P1Q1aY1t3WAdPLNM-51">
          <mxGeometry relative="1" as="geometry">
            <Array as="points" />
          </mxGeometry>
        </mxCell>
        <mxCell id="EGz7P1Q1aY1t3WAdPLNM-47" value="승인 완료 문구" style="shape=document;whiteSpace=wrap;html=1;boundedLbl=1;" vertex="1" parent="1">
          <mxGeometry x="1190" y="450" width="120" height="80" as="geometry" />
        </mxCell>
        <mxCell id="EGz7P1Q1aY1t3WAdPLNM-53" style="edgeStyle=orthogonalEdgeStyle;rounded=0;orthogonalLoop=1;jettySize=auto;html=1;entryX=0.417;entryY=1;entryDx=0;entryDy=0;entryPerimeter=0;" edge="1" parent="1" source="EGz7P1Q1aY1t3WAdPLNM-51" target="EGz7P1Q1aY1t3WAdPLNM-30">
          <mxGeometry relative="1" as="geometry">
            <mxPoint x="1350" y="230" as="targetPoint" />
            <Array as="points">
              <mxPoint x="1351" y="640" />
              <mxPoint x="1351" y="230" />
              <mxPoint x="1050" y="230" />
            </Array>
          </mxGeometry>
        </mxCell>
        <mxCell id="EGz7P1Q1aY1t3WAdPLNM-55" style="edgeStyle=orthogonalEdgeStyle;rounded=0;orthogonalLoop=1;jettySize=auto;html=1;entryX=0.764;entryY=0.913;entryDx=0;entryDy=0;entryPerimeter=0;" edge="1" parent="1" source="EGz7P1Q1aY1t3WAdPLNM-51" target="EGz7P1Q1aY1t3WAdPLNM-1">
          <mxGeometry relative="1" as="geometry">
            <mxPoint x="700" y="360" as="targetPoint" />
            <Array as="points">
              <mxPoint x="1130" y="641" />
              <mxPoint x="1130" y="380" />
              <mxPoint x="442" y="380" />
            </Array>
          </mxGeometry>
        </mxCell>
        <mxCell id="EGz7P1Q1aY1t3WAdPLNM-51" value="프로젝트 생성 유무" style="rhombus;whiteSpace=wrap;html=1;" vertex="1" parent="1">
          <mxGeometry x="1190" y="600" width="120" height="80" as="geometry" />
        </mxCell>
        <mxCell id="EGz7P1Q1aY1t3WAdPLNM-54" value="YES" style="text;html=1;align=center;verticalAlign=middle;resizable=0;points=[];autosize=1;strokeColor=none;fillColor=none;" vertex="1" parent="1">
          <mxGeometry x="1295" y="608" width="50" height="30" as="geometry" />
        </mxCell>
        <mxCell id="EGz7P1Q1aY1t3WAdPLNM-56" value="NO" style="text;html=1;align=center;verticalAlign=middle;resizable=0;points=[];autosize=1;strokeColor=none;fillColor=none;" vertex="1" parent="1">
          <mxGeometry x="1150" y="608" width="40" height="30" as="geometry" />
        </mxCell>
      </root>
    </mxGraphModel>
  </diagram>
</mxfile>
